<?xml version="1.0" standalone="no"?><!DOCTYPE svg PUBLIC "-//W3C//DTD SVG 1.1//EN" "http://www.w3.org/Graphics/SVG/1.1/DTD/svg11.dtd"><svg t="1770135065863" class="icon" viewBox="0 0 1024 1024" version="1.1" xmlns="http://www.w3.org/2000/svg" p-id="5424" xmlns:xlink="http://www.w3.org/1999/xlink" width="200" height="200"><path d="M363.733333 197.546667l-218.965333-39.04a49.92 49.92 0 0 0-49.664 19.968c-10.88 14.976-13.781333 35.797333-2.986667 54.613333l379.776 664.746667a50.432 50.432 0 0 0 87.765334-0.341334l372.437333-664.661333c20.906667-37.333333-11.178667-81.792-52.992-74.197333l-195.157333 34.688-8.789334 32.170666 209.322667-37.162666a20.224 20.224 0 0 1 21.248 29.738666L533.333333 882.730667a20.138667 20.138667 0 0 1-21.333333 9.984 19.968 19.968 0 0 1-13.909333-9.856L118.272 218.112a20.224 20.224 0 0 1 21.162667-29.866667l219.008 39.082667 3.157333 0.554667 2.133333-30.293334z" fill="#323544" p-id="5425"></path><path d="M644.138667 224.426667l6.912-25.301334-25.6 4.565334 18.688 20.778666zM393.258667 202.837333l21.888 3.84-23.125334 18.218667 1.28-22.058667z" fill="#323544" p-id="5426"></path><path d="M663.424 100.992l-260.266667 53.76a9.514667 9.514667 0 0 0-5.376 3.285333 10.538667 10.538667 0 0 0-2.346666 6.058667l-16 285.226667a10.325333 10.325333 0 0 0 3.370666 8.277333 9.088 9.088 0 0 0 8.32 2.133333l72.448-17.664c6.826667-1.621333 12.885333 4.693333 11.52 11.861334l-21.546666 111.189333c-1.450667 7.509333 5.205333 13.909333 12.16 11.690667l44.757333-14.336c6.912-2.218667 13.610667 4.181333 12.117333 11.690666l-34.176 174.634667c-2.133333 10.965333 11.605333 16.896 17.365334 7.552l3.84-6.272 212.053333-446.464c3.584-7.466667-2.56-16-10.325333-14.421333l-74.581334 15.189333c-7.04 1.450667-12.970667-5.461333-11.008-12.672l48.64-178.048c2.005333-7.253333-3.968-14.122667-10.965333-12.672z" fill="#323544" p-id="5427"></path></svg>